<svg id="Layer_1" viewBox="0 0 24 24" xmlns="http://www.w3.org/2000/svg" data-name="Layer 1"><path d="m24 19v-16c0-1.654-1.346-3-3-3h-18c-1.654 0-3 1.346-3 3v16h11v3h-5v2h12v-2h-5v-3zm-22-16c0-.552.448-1 1-1h18c.552 0 1 .448 1 1v14h-20zm15.5 6.5c0 3.032-2.468 5.5-5.5 5.5-2.512 0-4.631-1.695-5.287-4h2.138c.564 1.178 1.758 2 3.149 2 1.93 0 3.5-1.57 3.5-3.5s-1.57-3.5-3.5-3.5c-.923 0-1.799.37-2.445 1h1.445v2h-3.5c-.827 0-1.5-.673-1.5-1.5v-3.5h2v1.739c1.028-1.09 2.47-1.739 4-1.739 3.032 0 5.5 2.468 5.5 5.5z"/></svg>